<svg width="160" height="161" xmlns="http://www.w3.org/2000/svg" xmlns:xlink="http://www.w3.org/1999/xlink" xml:space="preserve" overflow="hidden"><g transform="translate(-192 -335)"><path d="M53.3333 86.6667 53.3333 106.667 106.667 106.667 106.667 53.3333 53.3333 53.3333 53.3333 60" stroke="#FFFFFF" stroke-width="10" stroke-linecap="round" fill="none" transform="matrix(1 0 0 1.00625 192 335)"/><path d="M106.667 106.673 126.667 106.67C137.713 106.668 146.668 115.621 146.67 126.667 146.671 137.713 137.719 146.668 126.673 146.67 115.627 146.671 106.671 137.719 106.67 126.673L106.667 106.673Z" stroke="#FFFFFF" stroke-width="10" fill="none" transform="matrix(1 0 0 1.00625 192 335)"/><path d="M53.3397 106.673 33.3397 106.67C22.2941 106.668 13.3383 115.621 13.3366 126.667 13.3349 137.713 22.2877 146.668 33.3335 146.67 44.3791 146.671 53.3349 137.719 53.3366 126.673L53.3397 106.673Z" stroke="#FFFFFF" stroke-width="10" fill="none" transform="matrix(1 0 0 1.00625 192 335)"/><path d="M106.667 53.3335 126.667 53.3366C137.713 53.3383 146.668 44.3854 146.67 33.3397 146.671 22.2941 137.719 13.3383 126.673 13.3366 115.627 13.3349 106.671 22.2877 106.67 33.3335L106.667 53.3335Z" stroke="#FFFFFF" stroke-width="10" fill="none" transform="matrix(1 0 0 1.00625 192 335)"/><path d="M53.3397 53.3335 33.3397 53.3366C22.2941 53.3383 13.3383 44.3854 13.3366 33.3397 13.3349 22.2941 22.2877 13.3383 33.3335 13.3366 44.3791 13.3349 53.3349 22.2877 53.3366 33.3335L53.3397 53.3335Z" stroke="#FFFFFF" stroke-width="10" fill="none" transform="matrix(1 0 0 1.00625 192 335)"/></g></svg>