<svg width="158" height="158" xmlns="http://www.w3.org/2000/svg" xmlns:xlink="http://www.w3.org/1999/xlink" xml:space="preserve" overflow="hidden"><g transform="translate(-239 -205)"><path d="M383.833 285.342 383.833 295.356C383.833 321.036 383.833 333.877 376.12 341.855 368.408 349.833 355.994 349.833 331.167 349.833L304.833 349.833C280.006 349.833 267.592 349.833 259.88 341.855 252.167 333.877 252.167 321.036 252.167 295.356L252.167 285.342C252.167 270.277 252.167 262.744 255.585 256.5 259.003 250.255 265.247 246.38 277.737 238.629L290.903 230.457C304.105 222.263 310.706 218.167 318 218.167 325.294 218.167 331.895 222.263 345.097 230.457L358.264 238.628C370.753 246.38 376.997 250.255 380.415 256.5" stroke="#FFFFFF" stroke-width="9.87499" stroke-linecap="round" fill="none"/><path d="M337.75 323.5 298.25 323.5" stroke="#FFFFFF" stroke-width="9.87499" stroke-linecap="round" fill="none"/></g></svg>