<svg width="167" height="167" xmlns="http://www.w3.org/2000/svg" xmlns:xlink="http://www.w3.org/1999/xlink" xml:space="preserve" overflow="hidden"><g transform="translate(-640 -196)"><path d="M723.5 314.292 723.5 272.542" stroke="#FFFFFF" stroke-width="10.4375" stroke-linecap="round" fill="none"/><path d="M13.9167 6.95833C13.9167 10.8013 10.8013 13.9167 6.95833 13.9167 3.11535 13.9167 -7.7253e-16 10.8013 -7.7253e-16 6.95833-2.31759e-15 3.11535 3.11535 -7.7253e-16 6.95833 -7.7253e-16 10.8013-2.31759e-15 13.9167 3.11535 13.9167 6.95833Z" stroke="#FFFFFF" stroke-width="6.95833" fill="none" transform="matrix(1 0 0 -1 716.542 258.625)"/><path d="M688.708 219.226C698.943 213.305 710.826 209.917 723.5 209.917 761.93 209.917 793.083 241.07 793.083 279.5 793.083 317.93 761.93 349.083 723.5 349.083 685.07 349.083 653.917 317.93 653.917 279.5 653.917 266.826 657.305 254.943 663.226 244.708" stroke="#FFFFFF" stroke-width="10.4375" stroke-linecap="round" fill="none"/></g></svg>