<svg width="392" height="392" xmlns="http://www.w3.org/2000/svg" xmlns:xlink="http://www.w3.org/1999/xlink" xml:space="preserve" overflow="hidden"><defs><clipPath id="clip0"><rect x="2482" y="1397" width="121" height="134"/></clipPath><clipPath id="clip1"><rect x="2482" y="1397" width="121" height="134"/></clipPath><clipPath id="clip2"><rect x="2482" y="1397" width="121" height="134"/></clipPath></defs><g transform="translate(-2347 -1268)"><path d="M2543 1268 2543 1291.06C2638.37 1291.06 2715.94 1368.63 2715.94 1464 2715.94 1559.37 2638.37 1636.94 2543 1636.94 2447.63 1636.94 2370.06 1559.37 2370.06 1464 2370.06 1409.47 2395.91 1358.67 2439.24 1326.04L2439.24 1406.35 2462.29 1406.35 2462.29 1291.06 2347 1291.06 2347 1314.12 2417.01 1314.12C2372.94 1351.17 2347 1405.75 2347 1464 2347 1572.08 2434.92 1660 2543 1660 2651.08 1660 2739 1572.08 2739 1464 2739 1355.92 2651.08 1268 2543 1268" stroke="#D3D3D3" stroke-width="0.204167" fill="#D3D3D3" fill-rule="evenodd"/><g clip-path="url(#clip0)"><g clip-path="url(#clip1)"><g clip-path="url(#clip2)"><path d="M75.1304 14.5989C77.7645 13.611 80.6346 13.4875 83.3272 14.2285L84.4697 14.5989 131.02 32.0552C135.866 33.8721 139.184 38.3161 139.605 43.4081L139.65 44.5084 139.65 80.1704C139.65 102.173 127.584 122.343 108.335 132.781L106.566 133.702 84.2608 144.854C81.7644 146.103 78.8757 146.242 76.2921 145.271L75.3392 144.854 53.0343 133.702C33.3544 123.862 20.7099 104.05 19.9831 82.1654L19.95 80.1704 19.95 44.5084C19.95 39.334 22.9458 34.6661 27.5657 32.484L28.58 32.0552ZM79.8 27.0521 33.25 44.5084 33.25 80.1704C33.25 97.2144 42.5588 112.845 57.4247 120.99L58.9822 121.806 79.8 132.215 100.618 121.806C115.863 114.184 125.68 98.8676 126.317 81.928L126.35 80.1704 126.35 44.5084ZM102.629 57.3835C105.226 54.7864 109.436 54.7864 112.033 57.3835 114.431 59.7807 114.615 63.5527 112.587 66.1615L112.033 66.788 77.2245 101.597C74.5718 104.25 70.3883 104.44 67.5168 102.166L66.8791 101.597 50.8915 85.6095C48.2945 83.0126 48.2945 78.8019 50.8915 76.205 53.2887 73.8077 57.0608 73.6235 59.6695 75.6517L60.296 76.205 72.0514 87.9609Z" fill="#D3D3D3" transform="matrix(1.00251 0 0 1 2463 1383.25)"/></g></g></g></g></svg>