<svg width="187" height="187" xmlns="http://www.w3.org/2000/svg" xmlns:xlink="http://www.w3.org/1999/xlink" xml:space="preserve" overflow="hidden"><g transform="translate(-106 -323)"><path d="M246.25 385.333C233.34 385.333 222.875 374.868 222.875 361.958 222.875 349.049 233.34 338.583 246.25 338.583 259.16 338.583 269.625 349.049 269.625 361.958 269.625 374.868 259.16 385.333 246.25 385.333ZM246.25 354.167C241.947 354.167 238.458 357.655 238.458 361.958 238.458 366.262 241.947 369.75 246.25 369.75 250.553 369.75 254.042 366.262 254.042 361.958 254.042 357.655 250.553 354.167 246.25 354.167Z" fill="#D3D3D3"/><path d="M148.854 435.979C133.793 435.979 121.583 423.77 121.583 408.708 121.583 393.647 133.793 381.438 148.854 381.438 163.915 381.438 176.125 393.647 176.125 408.708 176.125 423.77 163.915 435.979 148.854 435.979ZM148.854 397.021C142.399 397.021 137.167 402.254 137.167 408.708 137.167 415.163 142.399 420.396 148.854 420.396 155.309 420.396 160.542 415.163 160.542 408.708 160.542 402.254 155.309 397.021 148.854 397.021Z" fill="#D3D3D3"/><path d="M246.25 494.417C229.037 494.417 215.083 480.463 215.083 463.25 215.083 446.037 229.037 432.083 246.25 432.083 263.463 432.083 277.417 446.037 277.417 463.25 277.417 480.463 263.463 494.417 246.25 494.417ZM246.25 447.667C237.643 447.667 230.667 454.643 230.667 463.25 230.667 471.857 237.643 478.833 246.25 478.833 254.857 478.833 261.833 471.857 261.833 463.25 261.833 454.643 254.857 447.667 246.25 447.667Z" fill="#D3D3D3"/><path d="M166.23 405.903C163.204 405.925 160.44 404.194 159.139 401.462 157.259 397.591 158.873 392.929 162.743 391.049 162.763 391.04 162.782 391.03 162.801 391.021L225.758 361.179C229.764 359.606 234.286 361.578 235.858 365.583 237.275 369.189 235.826 373.289 232.459 375.204L169.502 405.124C168.491 405.645 167.367 405.913 166.23 405.903Z" fill="#D3D3D3"/><path d="M251.704 448.446C250.742 448.454 249.788 448.269 248.899 447.9L169.424 417.279C165.401 415.73 163.395 411.213 164.944 407.189 166.493 403.165 171.011 401.16 175.034 402.709L254.509 433.408C258.511 434.99 260.474 439.516 258.892 443.518 257.725 446.472 254.881 448.422 251.704 448.446Z" fill="#D3D3D3"/><path d="M201.136 467.146C199.45 467.146 197.81 466.599 196.461 465.587L152.75 432.862C149.109 430.569 148.016 425.758 150.31 422.117 152.604 418.476 157.414 417.384 161.056 419.677 161.396 419.891 161.719 420.132 162.022 420.396L205.811 453.121C209.254 455.703 209.952 460.587 207.37 464.029 205.898 465.991 203.589 467.146 201.136 467.146Z" fill="#D3D3D3"/></g></svg>