<svg width="422" height="423" xmlns="http://www.w3.org/2000/svg" xmlns:xlink="http://www.w3.org/1999/xlink" xml:space="preserve" overflow="hidden"><defs><clipPath id="clip0"><rect x="436" y="142" width="422" height="423"/></clipPath></defs><g clip-path="url(#clip0)" transform="translate(-436 -142)"><path d="M84.4 163947 506.4 163947 506.4 163905 84.4 163905 84.4 163947ZM126.6 164095 464.2 164095 464.2 164031 126.6 164031 126.6 164095ZM126.6 163989 84.4 163989 84.4 164031 84.4 164095 84.4 164137 126.6 164137 464.2 164137 506.4 164137 506.4 163989 464.2 163989 126.6 163989ZM464.2 163820 379.8 163820 126.6 163820 126.6 163757 464.2 163757 464.2 163820ZM464.2 163715 126.6 163715 84.4 163715 84.4 163757 84.4 163820 84.4 163863 126.6 163863 464.2 163863 506.4 163863 506.4 163715 464.2 163715Z" fill="#FFFFFF" fill-rule="evenodd" transform="matrix(1 0 0 1.00237 351.6 -163961)"/></g></svg>