<svg width="174" height="174" xmlns="http://www.w3.org/2000/svg" xmlns:xlink="http://www.w3.org/1999/xlink" xml:space="preserve" overflow="hidden"><g transform="translate(-545 -77)"><path d="M624.352 86.0625 639.648 86.0625C649.563 86.0624 657.555 86.0622 663.841 86.9073 670.366 87.7847 675.86 89.6616 680.224 94.0255 684.589 98.3895 686.466 103.884 687.343 110.41 688.188 116.695 688.188 124.687 688.188 134.602L688.188 193.398C688.188 203.313 688.188 211.305 687.343 217.591 686.466 224.116 684.589 229.61 680.224 233.975 675.86 238.339 670.366 240.216 663.841 241.093 657.555 241.938 649.563 241.938 639.648 241.938L624.352 241.938C614.437 241.938 606.445 241.938 600.16 241.093 593.634 240.216 588.139 238.339 583.776 233.975 579.412 229.61 577.535 224.116 576.657 217.591 575.812 211.305 575.812 203.313 575.812 193.398L575.812 134.602C575.812 124.687 575.812 116.695 576.657 110.41 577.535 103.884 579.412 98.3895 583.776 94.0255 588.139 89.6616 593.634 87.7847 600.16 86.9073 606.445 86.0622 614.437 86.0624 624.352 86.0625ZM601.609 97.6853C596.289 98.4006 593.472 99.7088 591.465 101.715 589.459 103.722 588.151 106.539 587.435 111.859 586.699 117.335 586.688 124.593 586.688 135L586.688 193C586.688 203.407 586.699 210.665 587.435 216.141 588.151 221.461 589.459 224.278 591.465 226.285 593.472 228.292 596.289 229.599 601.609 230.315 607.085 231.051 614.343 231.062 624.75 231.062L639.25 231.062C649.657 231.062 656.915 231.051 662.391 230.315 667.711 229.599 670.528 228.292 672.535 226.285 674.542 224.278 675.849 221.461 676.565 216.141 677.301 210.665 677.312 203.407 677.312 193L677.312 135C677.312 124.593 677.301 117.335 676.565 111.859 675.849 106.539 674.542 103.722 672.535 101.715 670.528 99.7088 667.711 98.4006 662.391 97.6853 656.915 96.949 649.657 96.9375 639.25 96.9375L624.75 96.9375C614.343 96.9375 607.085 96.949 601.609 97.6853ZM559.5 107.812C562.503 107.812 564.938 110.247 564.938 113.25L564.938 214.75C564.938 217.753 562.503 220.188 559.5 220.188 556.497 220.188 554.062 217.753 554.062 214.75L554.062 113.25C554.062 110.247 556.497 107.812 559.5 107.812ZM704.5 107.812C707.503 107.812 709.938 110.247 709.938 113.25L709.938 214.75C709.938 217.753 707.503 220.188 704.5 220.188 701.497 220.188 699.062 217.753 699.062 214.75L699.062 113.25C699.062 110.247 701.497 107.812 704.5 107.812ZM604.812 142.25C604.812 139.247 607.247 136.812 610.25 136.812L653.75 136.812C656.753 136.812 659.188 139.247 659.188 142.25 659.188 145.253 656.753 147.688 653.75 147.688L610.25 147.688C607.247 147.688 604.812 145.253 604.812 142.25ZM604.812 171.25C604.812 168.247 607.247 165.812 610.25 165.812L653.75 165.812C656.753 165.812 659.188 168.247 659.188 171.25 659.188 174.253 656.753 176.688 653.75 176.688L610.25 176.688C607.247 176.688 604.812 174.253 604.812 171.25ZM604.812 200.25C604.812 197.247 607.247 194.812 610.25 194.812L632 194.812C635.003 194.812 637.438 197.247 637.438 200.25 637.438 203.253 635.003 205.688 632 205.688L610.25 205.688C607.247 205.688 604.812 203.253 604.812 200.25Z" fill="#FFFFFF" fill-rule="evenodd"/></g></svg>