<svg width="175" height="174" xmlns="http://www.w3.org/2000/svg" xmlns:xlink="http://www.w3.org/1999/xlink" xml:space="preserve" overflow="hidden"><g transform="translate(-774 -64)"><path d="M49.2171 78.4989C45.7851 78.4989 43.0029 75.7168 43.0029 72.2846L43.0029 8.72983C43.0029 5.29775 45.7851 2.51554 49.2171 2.51554 52.6494 2.51554 55.4314 5.29775 55.4314 8.72983L55.4314 72.2846C55.4344 75.7139 52.6564 78.4959 49.2271 78.4989 49.2238 78.4989 49.2205 78.4989 49.2171 78.4989Z" fill="#FFFFFF" transform="matrix(1.00575 0 0 1 774 64)"/><path d="M151.922 153.269 22.0781 153.269C10.5794 153.244 1.26473 143.928 1.24286 132.429L1.24286 86.9055C1.26747 75.4086 10.5813 66.0951 22.0781 66.0703L151.922 66.0703C163.419 66.0951 172.732 75.4086 172.757 86.9055L172.757 132.429C172.735 143.928 163.421 153.244 151.922 153.269ZM22.0781 78.4989C17.4375 78.5043 13.6769 82.2647 13.6714 86.9055L13.6714 132.429C13.6742 137.071 17.4355 140.835 22.0781 140.841L151.922 140.841C156.563 140.832 160.323 137.07 160.329 132.429L160.329 86.9055C160.323 82.2647 156.563 78.5043 151.922 78.4989Z" fill="#FFFFFF" transform="matrix(1.00575 0 0 1 774 64)"/><path d="M134.562 117.127C138.68 117.127 142.019 113.788 142.019 109.67 142.019 105.551 138.68 102.213 134.562 102.213 130.443 102.213 127.105 105.551 127.105 109.67 127.105 113.788 130.443 117.127 134.562 117.127Z" fill="#FFFFFF" transform="matrix(1.00575 0 0 1 774 64)"/><path d="M109.705 117.127C113.823 117.127 117.162 113.788 117.162 109.67 117.162 105.551 113.823 102.213 109.705 102.213 105.586 102.213 102.247 105.551 102.247 109.67 102.247 113.788 105.586 117.127 109.705 117.127Z" fill="#FFFFFF" transform="matrix(1.00575 0 0 1 774 64)"/><path d="M58.817 115.884 36.1522 115.884C32.7201 115.884 29.9379 113.102 29.9379 109.67 29.9379 106.237 32.7201 103.455 36.1522 103.455L58.817 103.455C62.2492 103.455 65.0313 106.237 65.0313 109.67 65.0313 113.102 62.2492 115.884 58.817 115.884Z" fill="#FFFFFF" transform="matrix(1.00575 0 0 1 774 64)"/><path d="M22.4758 171.484C19.0438 171.487 16.2596 168.706 16.2573 165.275 16.2569 164.741 16.3252 164.21 16.4604 163.694L21.233 145.479C22.1695 142.177 25.6054 140.26 28.9072 141.196 32.1144 142.106 34.0324 145.384 33.2539 148.626L28.4813 166.841C27.7658 169.573 25.2996 171.479 22.4758 171.484Z" fill="#FFFFFF" transform="matrix(1.00575 0 0 1 774 64)"/><path d="M151.524 171.484C148.7 171.481 146.233 169.574 145.519 166.841L140.746 148.626C139.945 145.289 142 141.934 145.337 141.132 148.579 140.354 151.857 142.272 152.767 145.479L157.54 163.694C158.41 167.014 156.424 170.411 153.105 171.281 152.589 171.416 152.058 171.485 151.524 171.484Z" fill="#FFFFFF" transform="matrix(1.00575 0 0 1 774 64)"/></g></svg>