<svg width="187" height="187" xmlns="http://www.w3.org/2000/svg" xmlns:xlink="http://www.w3.org/1999/xlink" xml:space="preserve" overflow="hidden"><g transform="translate(-45 -222)"><path d="M185.25 284.333C172.34 284.333 161.875 273.868 161.875 260.958 161.875 248.049 172.34 237.583 185.25 237.583 198.16 237.583 208.625 248.049 208.625 260.958 208.625 273.868 198.16 284.333 185.25 284.333ZM185.25 253.167C180.947 253.167 177.458 256.655 177.458 260.958 177.458 265.262 180.947 268.75 185.25 268.75 189.553 268.75 193.042 265.262 193.042 260.958 193.042 256.655 189.553 253.167 185.25 253.167Z" fill="#FFFFFF"/><path d="M87.8542 334.979C72.7929 334.979 60.5833 322.77 60.5833 307.708 60.5833 292.647 72.7929 280.438 87.8542 280.438 102.915 280.438 115.125 292.647 115.125 307.708 115.125 322.77 102.915 334.979 87.8542 334.979ZM87.8542 296.021C81.3993 296.021 76.1667 301.254 76.1667 307.708 76.1667 314.163 81.3993 319.396 87.8542 319.396 94.309 319.396 99.5417 314.163 99.5417 307.708 99.5417 301.254 94.309 296.021 87.8542 296.021Z" fill="#FFFFFF"/><path d="M185.25 393.417C168.037 393.417 154.083 379.463 154.083 362.25 154.083 345.037 168.037 331.083 185.25 331.083 202.463 331.083 216.417 345.037 216.417 362.25 216.417 379.463 202.463 393.417 185.25 393.417ZM185.25 346.667C176.643 346.667 169.667 353.643 169.667 362.25 169.667 370.857 176.643 377.833 185.25 377.833 193.857 377.833 200.833 370.857 200.833 362.25 200.833 353.643 193.857 346.667 185.25 346.667Z" fill="#FFFFFF"/><path d="M105.23 304.903C102.204 304.925 99.44 303.194 98.1392 300.462 96.259 296.591 97.8726 291.929 101.743 290.049 101.763 290.04 101.782 290.03 101.801 290.021L164.758 260.179C168.764 258.606 173.286 260.578 174.858 264.583 176.275 268.189 174.826 272.289 171.459 274.204L108.502 304.124C107.491 304.645 106.367 304.913 105.23 304.903Z" fill="#FFFFFF"/><path d="M190.704 347.446C189.742 347.454 188.788 347.269 187.899 346.9L108.424 316.279C104.401 314.73 102.395 310.213 103.944 306.189 105.493 302.165 110.011 300.16 114.034 301.709L193.509 332.408C197.511 333.99 199.474 338.516 197.892 342.518 196.725 345.472 193.881 347.422 190.704 347.446Z" fill="#FFFFFF"/><path d="M140.136 366.146C138.45 366.146 136.81 365.599 135.461 364.587L91.75 331.862C88.109 329.569 87.0165 324.758 89.31 321.117 91.6035 317.476 96.4145 316.384 100.056 318.677 100.396 318.891 100.719 319.132 101.022 319.396L144.811 352.121C148.254 354.703 148.952 359.587 146.37 363.029 144.898 364.991 142.589 366.146 140.136 366.146Z" fill="#FFFFFF"/></g></svg>