<svg width="174" height="174" xmlns="http://www.w3.org/2000/svg" xmlns:xlink="http://www.w3.org/1999/xlink" xml:space="preserve" overflow="hidden"><g transform="translate(-545 -328)"><path d="M624.352 337.062 639.648 337.062C649.563 337.062 657.555 337.062 663.841 337.907 670.366 338.785 675.86 340.662 680.224 345.026 684.589 349.389 686.466 354.884 687.343 361.41 688.188 367.695 688.188 375.687 688.188 385.602L688.188 444.398C688.188 454.313 688.188 462.305 687.343 468.591 686.466 475.116 684.589 480.61 680.224 484.975 675.86 489.339 670.366 491.216 663.841 492.093 657.555 492.938 649.563 492.938 639.648 492.938L624.352 492.938C614.437 492.938 606.445 492.938 600.16 492.093 593.634 491.216 588.139 489.339 583.776 484.975 579.412 480.61 577.535 475.116 576.657 468.591 575.812 462.305 575.812 454.313 575.812 444.398L575.812 385.602C575.812 375.687 575.812 367.695 576.657 361.41 577.535 354.884 579.412 349.389 583.776 345.026 588.139 340.662 593.634 338.785 600.16 337.907 606.445 337.062 614.437 337.062 624.352 337.062ZM601.609 348.685C596.289 349.401 593.472 350.709 591.465 352.715 589.459 354.722 588.151 357.539 587.435 362.859 586.699 368.335 586.688 375.593 586.688 386L586.688 444C586.688 454.407 586.699 461.665 587.435 467.141 588.151 472.461 589.459 475.278 591.465 477.285 593.472 479.292 596.289 480.599 601.609 481.315 607.085 482.051 614.343 482.062 624.75 482.062L639.25 482.062C649.657 482.062 656.915 482.051 662.391 481.315 667.711 480.599 670.528 479.292 672.535 477.285 674.542 475.278 675.849 472.461 676.565 467.141 677.301 461.665 677.312 454.407 677.312 444L677.312 386C677.312 375.593 677.301 368.335 676.565 362.859 675.849 357.539 674.542 354.722 672.535 352.715 670.528 350.709 667.711 349.401 662.391 348.685 656.915 347.949 649.657 347.938 639.25 347.938L624.75 347.938C614.343 347.938 607.085 347.949 601.609 348.685ZM559.5 358.812C562.503 358.812 564.938 361.247 564.938 364.25L564.938 465.75C564.938 468.753 562.503 471.188 559.5 471.188 556.497 471.188 554.062 468.753 554.062 465.75L554.062 364.25C554.062 361.247 556.497 358.812 559.5 358.812ZM704.5 358.812C707.503 358.812 709.938 361.247 709.938 364.25L709.938 465.75C709.938 468.753 707.503 471.188 704.5 471.188 701.497 471.188 699.062 468.753 699.062 465.75L699.062 364.25C699.062 361.247 701.497 358.812 704.5 358.812ZM604.812 393.25C604.812 390.247 607.247 387.812 610.25 387.812L653.75 387.812C656.753 387.812 659.188 390.247 659.188 393.25 659.188 396.253 656.753 398.688 653.75 398.688L610.25 398.688C607.247 398.688 604.812 396.253 604.812 393.25ZM604.812 422.25C604.812 419.247 607.247 416.812 610.25 416.812L653.75 416.812C656.753 416.812 659.188 419.247 659.188 422.25 659.188 425.253 656.753 427.688 653.75 427.688L610.25 427.688C607.247 427.688 604.812 425.253 604.812 422.25ZM604.812 451.25C604.812 448.247 607.247 445.812 610.25 445.812L632 445.812C635.003 445.812 637.438 448.247 637.438 451.25 637.438 454.253 635.003 456.688 632 456.688L610.25 456.688C607.247 456.688 604.812 454.253 604.812 451.25Z" fill="#D3D3D3" fill-rule="evenodd"/></g></svg>