<svg width="175" height="175" xmlns="http://www.w3.org/2000/svg" xmlns:xlink="http://www.w3.org/1999/xlink" xml:space="preserve" overflow="hidden"><g transform="translate(-774 -315)"><path d="M823.5 393.95C820.048 393.95 817.25 391.152 817.25 387.7L817.25 323.78C817.25 320.328 820.048 317.53 823.5 317.53 826.952 317.53 829.75 320.328 829.75 323.78L829.75 387.7C829.753 391.149 826.959 393.947 823.51 393.95 823.507 393.95 823.503 393.95 823.5 393.95Z" fill="#D3D3D3"/><path d="M926.795 469.15 796.205 469.15C784.64 469.125 775.272 459.755 775.25 448.19L775.25 402.405C775.275 390.842 784.642 381.475 796.205 381.45L926.795 381.45C938.358 381.475 947.725 390.842 947.75 402.405L947.75 448.19C947.728 459.755 938.36 469.125 926.795 469.15ZM796.205 393.95C791.538 393.956 787.755 397.737 787.75 402.405L787.75 448.19C787.753 452.859 791.536 456.645 796.205 456.65L926.795 456.65C931.463 456.642 935.245 452.858 935.25 448.19L935.25 402.405C935.245 397.737 931.463 393.956 926.795 393.95Z" fill="#D3D3D3"/><path d="M909.335 432.8C913.477 432.8 916.835 429.442 916.835 425.3 916.835 421.158 913.477 417.8 909.335 417.8 905.193 417.8 901.835 421.158 901.835 425.3 901.835 429.442 905.193 432.8 909.335 432.8Z" fill="#D3D3D3"/><path d="M884.335 432.8C888.477 432.8 891.835 429.442 891.835 425.3 891.835 421.158 888.477 417.8 884.335 417.8 880.193 417.8 876.835 421.158 876.835 425.3 876.835 429.442 880.193 432.8 884.335 432.8Z" fill="#D3D3D3"/><path d="M833.155 431.55 810.36 431.55C806.908 431.55 804.11 428.752 804.11 425.3 804.11 421.848 806.908 419.05 810.36 419.05L833.155 419.05C836.607 419.05 839.405 421.848 839.405 425.3 839.405 428.752 836.607 431.55 833.155 431.55Z" fill="#D3D3D3"/><path d="M796.605 487.47C793.153 487.473 790.353 484.676 790.351 481.224 790.35 480.688 790.419 480.154 790.555 479.635L795.355 461.315C796.297 457.994 799.753 456.066 803.073 457.008 806.299 457.922 808.228 461.22 807.445 464.48L802.645 482.8C801.925 485.547 799.445 487.465 796.605 487.47Z" fill="#D3D3D3"/><path d="M926.395 487.47C923.555 487.467 921.073 485.548 920.355 482.8L915.555 464.48C914.749 461.124 916.817 457.75 920.172 456.943 923.433 456.16 926.73 458.09 927.645 461.315L932.445 479.635C933.32 482.974 931.323 486.391 927.984 487.266 927.466 487.401 926.932 487.47 926.395 487.47Z" fill="#D3D3D3"/></g></svg>