<svg width="780" height="438" xmlns="http://www.w3.org/2000/svg" xmlns:xlink="http://www.w3.org/1999/xlink" xml:space="preserve" overflow="hidden"><defs><clipPath id="clip0"><rect x="249" y="140" width="341" height="439"/></clipPath><clipPath id="clip1"><rect x="249" y="140" width="341" height="439"/></clipPath><clipPath id="clip2"><rect x="249" y="140" width="341" height="439"/></clipPath><clipPath id="clip3"><rect x="691" y="140" width="339" height="439"/></clipPath><clipPath id="clip4"><rect x="691" y="140" width="339" height="439"/></clipPath><clipPath id="clip5"><rect x="691" y="140" width="339" height="439"/></clipPath><clipPath id="clip6"><rect x="543" y="470" width="209" height="109"/></clipPath><clipPath id="clip7"><rect x="543" y="470" width="209" height="109"/></clipPath><clipPath id="clip8"><rect x="543" y="470" width="209" height="109"/></clipPath></defs><g transform="translate(-250 -141)"><g clip-path="url(#clip0)"><g clip-path="url(#clip1)"><g clip-path="url(#clip2)"><path d="M189.095 438 267.633 438 267.633 492.372 189.095 492.372Z" stroke="#F0F0F0" stroke-width="7.24965" stroke-miterlimit="8" fill="#F0F0F0" transform="matrix(1.00285 0 0 1 134.568 67.7815)"/><path d="M176.408 484.82C176.408 482.318 178.437 480.289 180.939 480.289L275.788 480.289C278.291 480.289 280.32 482.318 280.32 484.82L280.32 502.945C280.32 505.447 278.291 507.475 275.788 507.475L180.939 507.475C178.437 507.475 176.408 505.447 176.408 502.945Z" stroke="#F0F0F0" stroke-width="7.24965" stroke-miterlimit="8" fill="#F0F0F0" fill-rule="evenodd" transform="matrix(1.00285 0 0 1 134.568 67.7815)"/><path d="M134.507 272.524 194.939 247.924 260.556 409.117 200.124 433.716Z" stroke="#F0F0F0" stroke-width="7.24965" stroke-miterlimit="8" fill="#F0F0F0" fill-rule="evenodd" transform="matrix(1.00285 0 0 1 134.568 67.7815)"/><path d="M222.912 104.793 277.724 140.186 183.32 286.394 128.506 251.001Z" stroke="#F0F0F0" stroke-width="7.24965" stroke-miterlimit="8" fill="#F0F0F0" fill-rule="evenodd" transform="matrix(1.00285 0 0 1 134.568 67.7815)"/><path d="M390.332 145.359 364.995 205.485 257.623 160.239 282.959 100.113Z" stroke="#F0F0F0" stroke-width="7.24965" stroke-miterlimit="8" fill="#F0F0F0" fill-rule="evenodd" transform="matrix(1.00285 0 0 1 134.568 67.7815)"/><path d="M124.348 276.506C115.291 254.257 125.985 228.876 148.235 219.819 170.486 210.761 195.866 221.455 204.923 243.706 213.982 265.957 203.287 291.336 181.036 300.394 158.785 309.451 133.406 298.757 124.348 276.506Z" stroke="#F0F0F0" stroke-width="12.0827" stroke-miterlimit="8" fill="#F0F0F0" fill-rule="evenodd" transform="matrix(1.00285 0 0 1 134.568 67.7815)"/><path d="M210.264 139.15C201.207 116.9 211.902 91.5202 234.153 82.463 256.402 73.4051 281.783 84.1001 290.84 106.351 299.898 128.601 289.203 153.98 266.953 163.038 244.702 172.095 219.323 161.401 210.264 139.15Z" stroke="#F0F0F0" stroke-width="12.0827" stroke-miterlimit="8" fill="#F0F0F0" fill-rule="evenodd" transform="matrix(1.00285 0 0 1 134.568 67.7815)"/><path d="M453.157 228.948 392.725 253.548 376.739 214.279 437.17 189.678Z" stroke="#F0F0F0" stroke-width="0.302068" stroke-miterlimit="8" fill="#F0F0F0" fill-rule="evenodd" transform="matrix(1.00285 0 0 1 134.568 67.7815)"/><path d="M359.482 201.518C350.425 179.268 361.12 153.887 383.371 144.83 405.622 135.772 431.001 146.467 440.058 168.717 449.116 190.968 438.421 216.347 416.171 225.406 393.92 234.463 368.541 223.768 359.482 201.518Z" stroke="#F0F0F0" stroke-width="12.0827" stroke-miterlimit="8" fill="#F0F0F0" fill-rule="evenodd" transform="matrix(1.00285 0 0 1 134.568 67.7815)"/><path d="M184.866 416.251C184.866 392.228 204.341 372.753 228.364 372.753 252.387 372.753 271.862 392.228 271.862 416.251 271.862 440.275 252.387 459.748 228.364 459.748 204.341 459.748 184.866 440.275 184.866 416.251Z" stroke="#F0F0F0" stroke-width="12.0827" stroke-miterlimit="8" fill="#F0F0F0" fill-rule="evenodd" transform="matrix(1.00285 0 0 1 134.568 67.7815)"/><path d="M1.81318-2.64388e-06 1.81326 56.2085-1.81309 56.2085-1.81318 2.64388e-06ZM5.4396 54.3953 9.51797e-05 65.2744-5.43945 54.3953Z" stroke="#F0F0F0" stroke-width="1.16504" fill="#F0F0F0" transform="matrix(-0.925239 0.384649 0.385746 0.922607 561.696 317.021)"/><path d="M428.258 243.551C429.183 245.768 428.134 248.316 425.917 249.239 423.699 250.164 421.153 249.116 420.228 246.898 419.304 244.681 420.353 242.135 422.57 241.21 424.786 240.285 427.334 241.333 428.258 243.551Z" stroke="#F0F0F0" stroke-width="3.62482" stroke-miterlimit="8" fill="#F0F0F0" fill-rule="evenodd" transform="matrix(1.00285 0 0 1 134.568 67.7815)"/><path d="M420.926 248.571 369.067 270.191 367.673 266.846 419.532 245.225ZM372.136 272.84 360.005 272.006 367.95 262.803Z" stroke="#F0F0F0" stroke-width="1.16489" fill="#F0F0F0" transform="matrix(1.00285 0 0 1 134.568 67.7815)"/></g></g></g><g clip-path="url(#clip3)"><g clip-path="url(#clip4)"><g clip-path="url(#clip5)"><path d="M188.983 437.74 267.475 437.74 267.475 492.081 188.983 492.081Z" stroke="#F0F0F0" stroke-width="7.24536" stroke-miterlimit="8" fill="#F0F0F0" transform="matrix(-1 0 0 1.00059 1145.03 67.7815)"/><path d="M176.303 484.532C176.303 482.032 178.331 480.004 180.832 480.004L275.625 480.004C278.126 480.004 280.154 482.032 280.154 484.532L280.154 502.646C280.154 505.147 278.126 507.175 275.625 507.175L180.832 507.175C178.331 507.175 176.303 505.147 176.303 502.646Z" stroke="#F0F0F0" stroke-width="7.24536" stroke-miterlimit="8" fill="#F0F0F0" fill-rule="evenodd" transform="matrix(-1 0 0 1.00059 1145.03 67.7815)"/><path d="M134.427 272.362 194.824 247.778 260.402 408.875 200.005 433.459Z" stroke="#F0F0F0" stroke-width="7.24536" stroke-miterlimit="8" fill="#F0F0F0" fill-rule="evenodd" transform="matrix(-1 0 0 1.00059 1145.03 67.7815)"/><path d="M222.779 104.731 277.56 140.103 183.211 286.224 128.431 250.852Z" stroke="#F0F0F0" stroke-width="7.24536" stroke-miterlimit="8" fill="#F0F0F0" fill-rule="evenodd" transform="matrix(-1 0 0 1.00059 1145.03 67.7815)"/><path d="M390.1 145.272 364.779 205.364 257.47 160.145 282.792 100.054Z" stroke="#F0F0F0" stroke-width="7.24536" stroke-miterlimit="8" fill="#F0F0F0" fill-rule="evenodd" transform="matrix(-1 0 0 1.00059 1145.03 67.7815)"/><path d="M124.274 276.343C115.222 254.105 125.91 228.74 148.147 219.688 170.385 210.636 195.75 221.324 204.802 243.562 213.854 265.799 203.166 291.164 180.928 300.216 158.691 309.268 133.326 298.579 124.274 276.343Z" stroke="#F0F0F0" stroke-width="12.0755" stroke-miterlimit="8" fill="#F0F0F0" fill-rule="evenodd" transform="matrix(-1 0 0 1.00059 1145.03 67.7815)"/><path d="M210.14 139.068C201.088 116.831 211.776 91.466 234.014 82.414 256.25 73.3616 281.616 84.0503 290.668 106.287 299.72 128.525 289.031 153.89 266.795 162.942 244.557 171.994 219.193 161.305 210.14 139.068Z" stroke="#F0F0F0" stroke-width="12.0755" stroke-miterlimit="8" fill="#F0F0F0" fill-rule="evenodd" transform="matrix(-1 0 0 1.00059 1145.03 67.7815)"/><path d="M452.888 228.813 392.492 253.398 376.516 214.152 436.912 189.567Z" stroke="#F0F0F0" stroke-width="0.30189" stroke-miterlimit="8" fill="#F0F0F0" fill-rule="evenodd" transform="matrix(-1 0 0 1.00059 1145.03 67.7815)"/><path d="M359.27 201.398C350.217 179.161 360.907 153.796 383.143 144.744 405.381 135.692 430.746 146.38 439.797 168.617 448.851 190.855 438.162 216.22 415.924 225.272 393.688 234.324 368.322 223.636 359.27 201.398Z" stroke="#F0F0F0" stroke-width="12.0755" stroke-miterlimit="8" fill="#F0F0F0" fill-rule="evenodd" transform="matrix(-1 0 0 1.00059 1145.03 67.7815)"/><path d="M184.756 416.004C184.756 391.995 204.22 372.532 228.229 372.532 252.237 372.532 271.701 391.995 271.701 416.004 271.701 440.013 252.237 459.476 228.229 459.476 204.22 459.476 184.756 440.013 184.756 416.004Z" stroke="#F0F0F0" stroke-width="12.0755" stroke-miterlimit="8" fill="#F0F0F0" fill-rule="evenodd" transform="matrix(-1 0 0 1.00059 1145.03 67.7815)"/><path d="M1.8115-2.64144e-06 1.81158 56.1565-1.81141 56.1565-1.8115 2.64144e-06ZM5.43457 54.345 9.50916e-05 65.2139-5.43442 54.345Z" stroke="#F0F0F0" stroke-width="1.16577" fill="#F0F0F0" transform="matrix(0.922914 0.385005 -0.384777 0.923461 719.375 317.021)"/><path d="M428.004 243.406C428.927 245.622 427.88 248.168 425.664 249.092 423.449 250.015 420.902 248.968 419.979 246.752 419.056 244.536 420.103 241.991 422.319 241.066 424.534 240.142 427.081 241.19 428.004 243.406Z" stroke="#F0F0F0" stroke-width="3.62267" stroke-miterlimit="8" fill="#F0F0F0" fill-rule="evenodd" transform="matrix(-1 0 0 1.00059 1145.03 67.7815)"/><path d="M420.676 248.423 368.849 270.031 367.454 266.688 419.283 245.08ZM371.915 272.678 359.792 271.844 367.732 262.646Z" stroke="#F0F0F0" stroke-width="1.16592" fill="#F0F0F0" transform="matrix(-1 0 0 1.00059 1145.03 67.7815)"/></g></g></g><g clip-path="url(#clip6)"><g clip-path="url(#clip7)"><g clip-path="url(#clip8)"><path d="M363.052 490.087 474.611 490.087 474.611 535.226 363.052 535.226Z" stroke="#F0F0F0" stroke-width="3.86911" stroke-miterlimit="8" fill="#F0F0F0" transform="matrix(1.00572 0 0 1 180.628 41.7822)"/><path d="M532.633 534.173 458.52 471.985 487.611 437.317 561.723 499.505Z" stroke="#F0F0F0" stroke-width="3.86911" stroke-miterlimit="8" fill="#F0F0F0" fill-rule="evenodd" transform="matrix(1.00572 0 0 1 180.628 41.7822)"/><path d="M1.93911-2.82751e-06 1.9392 60.1122-1.93901 60.1122-1.93911 2.82751e-06ZM5.8174 58.1732 0.00010179 69.8078-5.81723 58.1732Z" stroke="#F0F0F0" stroke-width="1.16531" fill="#F0F0F0" transform="matrix(0.76862 0.641279 0.64495 -0.764246 697.013 524.014)"/><path d="M506.908 482.805C508.556 480.841 511.485 480.584 513.449 482.232 515.413 483.88 515.669 486.809 514.021 488.774 512.372 490.738 509.444 490.994 507.48 489.346 505.516 487.698 505.259 484.769 506.908 482.805Z" stroke="#F0F0F0" stroke-width="3.86911" stroke-miterlimit="8" fill="#F0F0F0" fill-rule="evenodd" transform="matrix(1.00572 0 0 1 180.628 41.7822)"/><path d="M515.265 487.292 561.205 525.84 558.718 528.804 512.778 490.256ZM562.21 521.632 567.372 533.54 554.749 530.525Z" stroke="#F0F0F0" stroke-width="1.16489" fill="#F0F0F0" transform="matrix(1.00572 0 0 1 180.628 41.7822)"/><path d="M1.93455-2.82087e-06 1.93464 59.9711-1.93447 59.9711-1.93455 2.82087e-06ZM5.80374 58.0366 0.000101551 69.6439-5.80358 58.0366Z" stroke="#F0F0F0" stroke-width="1.16489" fill="#F0F0F0" transform="matrix(1.00572 0 0 -1 602.177 549.926)"/><path d="M413.995 512.657C413.995 510.164 416.16 508.143 418.831 508.143 421.503 508.143 423.667 510.164 423.667 512.657 423.667 515.149 421.503 517.171 418.831 517.171 416.16 517.171 413.995 515.149 413.995 512.657Z" stroke="#F0F0F0" stroke-width="3.86911" stroke-miterlimit="8" fill="#F0F0F0" fill-rule="evenodd" transform="matrix(1.00572 0 0 1 180.628 41.7822)"/><path d="M423.667 510.723 483.639 510.723 483.639 514.591 423.667 514.591ZM481.704 506.853 493.311 512.657 481.704 518.46Z" stroke="#F0F0F0" stroke-width="1.16489" fill="#F0F0F0" transform="matrix(1.00572 0 0 1 180.628 41.7822)"/></g></g></g></g></svg>