<svg width="486" height="498" xmlns="http://www.w3.org/2000/svg" xmlns:xlink="http://www.w3.org/1999/xlink" xml:space="preserve" overflow="hidden"><defs><clipPath id="clip0"><rect x="397" y="111" width="486" height="498"/></clipPath></defs><g clip-path="url(#clip0)" transform="translate(-397 -111)"><path d="M221.156 284.573 221.156 81.8224 110.578 81.8224 0 81.8224 0.507167 59.261C0.786105 46.8523 1.32936 28.4423 1.7144 18.3498L2.41449 0 112.387 0 222.359 0 222.52 11.1302C222.608 17.2519 223.014 34.9851 223.423 50.5373L224.164 78.8142 355.212 79.1203 486.26 79.4266 485.469 107.397C485.034 122.781 484.677 139.776 484.675 145.164L484.673 154.959 461.509 155.683C448.77 156.081 418.853 156.954 395.029 157.621 371.204 158.289 348.192 159.402 343.89 160.094 328.819 162.522 314.671 174.258 310.986 187.391 306.764 202.438 306.374 214.687 305.758 351.656L305.147 487.325 263.152 487.325 221.156 487.325Z" stroke="#F0F0F0" stroke-width="1.62352" stroke-linejoin="round" fill="#F0F0F0" transform="matrix(1 0 0 1.02219 397 111)"/></g></svg>