<svg width="146" height="121" xmlns="http://www.w3.org/2000/svg" xmlns:xlink="http://www.w3.org/1999/xlink" xml:space="preserve" overflow="hidden"><defs><clipPath id="clip0"><rect x="723" y="225" width="146" height="121"/></clipPath></defs><g clip-path="url(#clip0)" transform="translate(-723 -225)"><path d="M88.6628 10.9135C90.5779 12.1184 92.1975 13.7382 93.4028 15.6532L151.297 107.662C155.74 114.722 153.618 124.047 146.557 128.49 144.148 130.005 141.36 130.809 138.514 130.809L22.7249 130.809C14.3834 130.809 7.6214 124.048 7.6214 115.706 7.6214 112.86 8.42566 110.071 9.94144 107.662L67.8361 15.6532C72.2786 8.59316 81.6029 6.47112 88.6628 10.9135ZM76.6993 20.5367 76.358 21.0156 18.4637 113.025C17.9585 113.828 17.6904 114.757 17.6904 115.706 17.6904 118.273 19.6109 120.391 22.0933 120.701L22.7249 120.74 138.514 120.74C139.463 120.74 140.392 120.472 141.195 119.967 143.38 118.592 144.146 115.814 143.059 113.54L142.775 113.025 84.8804 21.0156C84.4786 20.3773 83.9389 19.8374 83.3006 19.4357 81.1151 18.0607 78.2792 18.5724 76.6993 20.5367ZM80.5517 98.1724C84.4444 98.1724 87.6 101.328 87.6 105.221 87.6 109.113 84.4444 112.269 80.5517 112.269 76.6591 112.269 73.5035 109.113 73.5035 105.221 73.5035 101.328 76.6591 98.1724 80.5517 98.1724ZM80.5517 45.3103C83.3323 45.3103 85.5862 47.5643 85.5862 50.3448L85.5862 85.5862C85.5862 88.3668 83.3323 90.6207 80.5517 90.6207 77.7712 90.6207 75.5172 88.3668 75.5172 85.5862L75.5172 50.3448C75.5172 47.5643 77.7712 45.3103 80.5517 45.3103Z" fill="#FFFFFF" transform="matrix(1 0 0 1.00143 715.379 216.396)"/></g></svg>