<svg width="145" height="121" xmlns="http://www.w3.org/2000/svg" xmlns:xlink="http://www.w3.org/1999/xlink" xml:space="preserve" overflow="hidden"><defs><clipPath id="clip0"><rect x="724" y="421" width="145" height="121"/></clipPath></defs><g clip-path="url(#clip0)" transform="translate(-724 -421)"><path d="M88.0555 10.8387C89.9575 12.0354 91.566 13.6442 92.763 15.546L150.261 106.925C154.673 113.937 152.565 123.197 145.553 127.609 143.161 129.115 140.392 129.913 137.565 129.913L22.5692 129.913C14.2849 129.913 7.5692 123.198 7.5692 114.913 7.5692 112.086 8.36795 109.318 9.87335 106.925L67.3715 15.546C71.7835 8.5343 81.044 6.4268 88.0555 10.8387ZM76.174 20.396 75.835 20.8717 18.3372 112.251C17.8354 113.048 17.5692 113.971 17.5692 114.913 17.5692 117.463 19.4766 119.566 21.942 119.874L22.5692 119.913 137.565 119.913C138.508 119.913 139.431 119.647 140.228 119.146 142.398 117.78 143.159 115.021 142.079 112.762L141.797 112.251 84.299 20.8717C83.9 20.2378 83.364 19.7015 82.73 19.3026 80.5595 17.937 77.743 18.4452 76.174 20.396ZM80 97.5C83.866 97.5 87 100.634 87 104.5 87 108.366 83.866 111.5 80 111.5 76.134 111.5 73 108.366 73 104.5 73 100.634 76.134 97.5 80 97.5ZM80 45C82.7615 45 85 47.2385 85 50L85 85C85 87.7615 82.7615 90 80 90 77.2385 90 75 87.7615 75 85L75 50C75 47.2385 77.2385 45 80 45Z" fill="#D3D3D3" transform="matrix(1 0 0 1.00833 716.431 412.396)"/></g></svg>