<svg width="116" height="117" xmlns="http://www.w3.org/2000/svg" xmlns:xlink="http://www.w3.org/1999/xlink" xml:space="preserve" overflow="hidden"><g transform="translate(-528 -151)"><path d="M108.806 47.0181 99.5025 44.9536C98.7775 42.6336 97.8278 40.4133 96.7384 38.2783L101.772 29.8919C103.651 26.8885 104.601 22.4697 101.772 19.6385L96.6423 14.5128C93.813 11.6817 89.0353 12.191 86.1498 14.192L77.99 19.3901C75.8728 18.2917 73.6598 17.3511 71.3597 16.6079L69.2718 7.192C68.6483 3.7393 65.6287 0 61.6249 0L54.3749 0C50.3711 0 47.917 3.79538 47.1249 7.25L44.7994 16.5536C42.3435 17.3366 39.9855 18.3371 37.7379 19.5224L29.3733 14.1955C26.4896 12.1945 21.71 11.6852 18.8807 14.5163L13.7531 19.6421C10.922 22.475 11.8718 26.8921 13.7531 29.8954L19.0493 38.7223C18.0561 40.7233 17.1751 42.7931 16.4954 44.9554L7.1937 47.0199C3.73907 47.6416 0 50.6612 0 54.665L0 61.915C0 65.9188 3.79538 68.3729 7.25 69.165L16.6696 71.5194C17.3204 73.5168 18.1341 75.4344 19.0548 77.2941L13.7533 86.13C11.8738 89.1315 10.9241 93.5504 13.7533 96.3815L18.8826 101.507C21.7119 104.34 26.4897 103.829 29.3752 101.83L37.758 96.4883C40.0182 97.6809 42.3889 98.6905 44.8612 99.4718L47.1811 108.75C47.9749 112.205 50.4273 116 54.4311 116L61.6811 116C65.6849 116 68.7045 112.261 69.328 108.806L71.4196 99.365C73.6961 98.6291 75.8802 97.701 77.9718 96.6171L86.1498 101.828C89.0353 103.829 93.8149 104.338 96.6424 101.505L101.772 96.3797C104.601 93.5468 103.651 89.1297 101.772 86.1282L96.7351 77.7309C97.7482 75.7407 98.6255 73.6709 99.3306 71.5176L108.75 69.165C112.205 68.3711 116 65.9188 116 61.915L116 54.665C116 50.6612 112.263 47.6416 108.806 47.0181ZM108.754 61.4039C108.445 61.625 107.865 61.9289 107.129 62.0993L93.6878 65.4559 92.4408 69.2658C91.8772 70.9824 91.1486 72.7242 90.275 74.4441L88.4552 78.0203 95.5566 89.8614C96.0097 90.5864 96.2218 91.2351 96.2852 91.6176L91.5165 96.3791C91.0562 96.2341 90.5323 96.0455 90.2804 95.8734L78.3469 88.2627 74.6367 90.1823C72.8496 91.1103 71.0152 91.8788 69.1882 92.4697L65.237 93.7475 62.25 107.242C62.1122 107.963 61.7262 108.545 61.4615 108.753L54.9365 108.753C54.7155 108.445 54.4128 107.865 54.2442 107.131L50.9075 93.7856 47.0451 92.5602C45.0549 91.9331 43.0703 91.0975 41.1382 90.0789L37.4099 88.1105 25.4746 95.7176C24.987 96.0474 24.465 96.2341 23.9919 96.2341L19.2378 91.6069C19.3012 91.2318 19.4988 90.612 19.8939 89.9794L27.3088 77.6254 25.5453 74.0747C24.7224 72.4 24.0699 70.8285 23.5624 69.2716L22.3172 65.4581 9.0079 62.1302C8.17052 61.9399 7.56515 61.6282 7.24977 61.4052L7.24977 54.6645C7.2534 54.6664 7.25884 54.6682 7.2662 54.6682 7.38764 54.6682 7.98395 54.2439 8.48057 54.1534L22.1559 51.1246 23.4118 47.1281C23.923 45.5004 24.6208 43.8039 25.5433 41.9426L27.3069 38.3901 19.97 26.1648C19.5151 25.4362 19.3048 24.7873 19.2414 24.4067L24.0083 19.6415C24.4704 19.7901 24.9906 19.9768 25.2408 20.149L37.3972 27.8974 41.1219 25.9327C43.0341 24.925 45.0115 24.0931 47.0016 23.4605L50.855 22.2335 54.1609 9.00597C54.3531 8.16871 54.6611 7.56334 54.8859 7.24785L61.625 7.24785C61.576 7.32227 62.0419 7.95472 62.1378 8.47865L65.1828 22.2319 69.1304 23.5079C70.981 24.106 72.8406 24.8854 74.6495 25.8243L78.3597 27.751 90.0449 20.307C90.5343 19.9734 91.0581 19.7886 91.5275 19.7886L96.2853 24.4123C96.2219 24.7893 96.0225 25.411 95.6274 26.0454L88.4517 37.9952 90.2823 41.5767C91.2701 43.5088 92.0241 45.3213 92.5842 47.1193L93.8366 51.1231 107.237 54.0975C108.047 54.2479 108.678 54.7155 108.812 54.9693ZM58.0487 36.2131C46.0101 36.2131 36.2153 45.9879 36.2153 57.9993 36.2153 70.0089 46.0101 79.7838 58.0487 79.7838 70.0873 79.7838 79.8821 70.0089 79.8821 57.9993 79.8821 45.9879 70.0873 36.2131 58.0487 36.2131ZM57.9998 72.4993C50.0048 72.4993 43.4998 65.9943 43.4998 57.9993 43.4998 50.0026 50.0048 43.4993 57.9998 43.4993 65.9965 43.4993 72.4998 50.0026 72.4998 57.9993 72.4998 65.9943 65.9947 72.4993 57.9998 72.4993Z" fill="#FFFFFF" transform="matrix(1 0 0 1.00862 528 151)"/></g></svg>