<svg width="158" height="158" xmlns="http://www.w3.org/2000/svg" xmlns:xlink="http://www.w3.org/1999/xlink" xml:space="preserve" overflow="hidden"><g transform="translate(-239 -414)"><path d="M383.833 494.342 383.833 504.356C383.833 530.036 383.833 542.877 376.12 550.855 368.408 558.833 355.994 558.833 331.167 558.833L304.833 558.833C280.006 558.833 267.592 558.833 259.88 550.855 252.167 542.877 252.167 530.036 252.167 504.356L252.167 494.342C252.167 479.277 252.167 471.744 255.585 465.5 259.003 459.255 265.247 455.38 277.737 447.629L290.903 439.457C304.105 431.263 310.706 427.167 318 427.167 325.294 427.167 331.895 431.263 345.097 439.457L358.264 447.628C370.753 455.38 376.997 459.255 380.415 465.5" stroke="#D3D3D3" stroke-width="9.875" stroke-linecap="round" fill="none"/><path d="M337.75 532.5 298.25 532.5" stroke="#D3D3D3" stroke-width="9.875" stroke-linecap="round" fill="none"/></g></svg>