<svg width="392" height="392" xmlns="http://www.w3.org/2000/svg" xmlns:xlink="http://www.w3.org/1999/xlink" xml:space="preserve" overflow="hidden"><defs><clipPath id="clip0"><rect x="1735" y="1268" width="392" height="392"/></clipPath><clipPath id="clip1"><rect x="1853" y="1400" width="155" height="127"/></clipPath><clipPath id="clip2"><rect x="1853" y="1400" width="155" height="127"/></clipPath><clipPath id="clip3"><rect x="1853" y="1400" width="155" height="127"/></clipPath></defs><g clip-path="url(#clip0)" transform="translate(-1735 -1268)"><path d="M1931 1268 1931 1291.06C2026.37 1291.06 2103.94 1368.63 2103.94 1464 2103.94 1559.37 2026.37 1636.94 1931 1636.94 1835.63 1636.94 1758.06 1559.37 1758.06 1464 1758.06 1409.47 1783.91 1358.67 1827.24 1326.04L1827.24 1406.35 1850.29 1406.35 1850.29 1291.06 1735 1291.06 1735 1314.12 1805.01 1314.12C1760.94 1351.17 1735 1405.75 1735 1464 1735 1572.08 1822.92 1660 1931 1660 2039.08 1660 2127 1572.08 2127 1464 2127 1355.92 2039.08 1268 1931 1268" stroke="#D3D3D3" stroke-width="0.204167" fill="#D3D3D3" fill-rule="evenodd"/><g clip-path="url(#clip1)"><g clip-path="url(#clip2)"><g clip-path="url(#clip3)"><path d="M92.9139 11.4367C94.9209 12.6994 96.6181 14.397 97.8812 16.4037L158.552 112.825C163.207 120.223 160.983 129.995 153.584 134.65 151.06 136.238 148.138 137.081 145.155 137.081L23.8144 137.081C15.0731 137.081 7.98683 129.995 7.98683 121.254 7.98683 118.271 8.82965 115.349 10.4181 112.825L71.0887 16.4037C75.7441 9.00518 85.5156 6.7814 92.9139 11.4367ZM80.3769 21.5214 80.0192 22.0233 19.349 118.444C18.8195 119.285 18.5386 120.259 18.5386 121.254 18.5386 123.943 20.5512 126.163 23.1526 126.489L23.8144 126.53 145.155 126.53C146.15 126.53 147.124 126.248 147.965 125.719 150.255 124.278 151.058 121.367 149.918 118.984L149.621 118.444 88.9502 22.0233C88.5292 21.3544 87.9636 20.7885 87.2946 20.3676 85.0043 18.9267 82.0324 19.4629 80.3769 21.5214ZM84.414 102.88C88.4933 102.88 91.8002 106.186 91.8002 110.266 91.8002 114.345 88.4933 117.652 84.414 117.652 80.3347 117.652 77.0277 114.345 77.0277 110.266 77.0277 106.186 80.3347 102.88 84.414 102.88ZM84.414 47.4829C87.3278 47.4829 89.6898 49.8449 89.6898 52.7587L89.6898 89.6898C89.6898 92.6037 87.3278 94.9657 84.414 94.9657 81.5001 94.9657 79.1381 92.6037 79.1381 89.6898L79.1381 52.7587C79.1381 49.8449 81.5001 47.4829 84.414 47.4829Z" fill="#D3D3D3" transform="matrix(1 0 0 1.00299 1846.01 1390.97)"/></g></g></g></g></svg>