<svg width="140" height="155" xmlns="http://www.w3.org/2000/svg" xmlns:xlink="http://www.w3.org/1999/xlink" xml:space="preserve" overflow="hidden"><defs><clipPath id="clip0"><rect x="937" y="208" width="140" height="155"/></clipPath></defs><g clip-path="url(#clip0)" transform="translate(-937 -208)"><path d="M87.558 17.0138C90.6277 15.8625 93.9726 15.7185 97.1106 16.5821L98.442 17.0138 152.692 37.3576C158.339 39.4749 162.207 44.6541 162.697 50.5884L162.75 51.8707 162.75 93.4317C162.75 119.074 148.688 142.58 126.255 154.744L124.193 155.818 98.1987 168.815C95.2893 170.27 91.9228 170.432 88.9119 169.3L87.8013 168.815 61.8069 155.818C38.8717 144.35 24.1356 121.261 23.2886 95.7567L23.25 93.4317 23.25 51.8707C23.25 45.8403 26.7414 40.4004 32.1255 37.8573L33.3076 37.3576ZM93 31.5269 38.75 51.8707 38.75 93.4317C38.75 113.295 49.5986 131.511 66.9235 141.004L68.7386 141.954 93 154.085 117.261 141.954C135.028 133.071 146.469 115.222 147.211 95.48L147.25 93.4317 147.25 51.8707ZM119.605 66.8755C122.632 63.8488 127.539 63.8488 130.565 66.8755 133.36 69.6692 133.574 74.0652 131.21 77.1054L130.565 77.8356 89.9984 118.403C86.907 121.494 82.0314 121.715 78.685 119.066L77.9417 118.403 59.3096 99.7704C56.2831 96.744 56.2831 91.8367 59.3096 88.8103 62.1034 86.0165 66.4994 85.8018 69.5397 88.1656L70.2698 88.8103 83.9697 102.511Z" fill="#FFFFFF" transform="matrix(1.00358 0 0 1 913.667 191.973)"/></g></svg>