<svg width="146" height="145" xmlns="http://www.w3.org/2000/svg" xmlns:xlink="http://www.w3.org/1999/xlink" xml:space="preserve" overflow="hidden"><g transform="translate(-320 -410)"><path d="M132.917 72.5C132.917 100.98 132.917 115.221 124.069 124.069 115.221 132.917 100.98 132.917 72.5 132.917 44.0193 132.917 29.7789 132.917 20.9312 124.069 12.0833 115.221 12.0833 100.98 12.0833 72.5 12.0833 44.0193 12.0833 29.7789 20.9312 20.9312 29.7789 12.0833 44.0193 12.0833 72.5 12.0833 100.98 12.0833 115.221 12.0833 124.069 20.9312 129.952 26.8142 131.923 35.0812 132.584 48.3333" stroke="#D3D3D3" stroke-width="9.06247" stroke-linecap="round" fill="none" transform="matrix(1.0069 0 0 1 320 410)"/></g></svg>